<svg xmlns="http://www.w3.org/2000/svg" viewBox="0 0 221.4 230.63"><defs><style>.cls-1{fill-rule:evenodd;}</style></defs><g id="Layer_2" data-name="Layer 2"><g id="Layer_1-2" data-name="Layer 1"><path class="cls-1" d="M141.91.53l-128,9.41C3.6,10.84,0,17.57,0,25.63V165.52c0,6.29,2.24,11.66,7.63,18.84l30.09,39c4.94,6.28,9.44,7.63,18.87,7.18l148.64-9c12.57-.9,16.17-6.73,16.17-16.59V47.6c0-5.09-2-6.57-8-10.91l-1-.74L171.55,7.25C161.67.08,157.63-.82,141.91.53ZM60,45c-12.13.82-14.89,1-21.78-4.59L20.65,26.53c-1.78-1.79-.89-4,3.6-4.48l123.05-9c10.33-.9,15.72,2.7,19.76,5.83l21.11,15.25c.89.45,3.14,3.13.44,3.13L61.53,44.92ZM45.81,203.64V70c0-5.83,1.79-8.52,7.18-9l146-8.51c4.95-.45,7.19,2.69,7.19,8.51V193.77c0,5.83-.9,10.77-9,11.22L57.48,213.06C49.4,213.51,45.81,210.82,45.81,203.64ZM183.68,77.19c.9,4,0,8.08-4.05,8.53l-6.73,1.34V185.7c-5.84,3.14-11.23,4.94-15.72,4.94-7.18,0-9-2.25-14.37-9l-44-69v66.81l13.93,3.14s0,8.07-11.23,8.07l-31,1.79c-.9-1.79,0-6.27,3.14-7.17L81.73,183V94.69l-11.22-.9c-.9-4,1.34-9.86,7.63-10.32l33.24-2.23,45.8,69.94V89.31L145.5,88c-.89-4.94,2.7-8.53,7.19-9Z"/></g></g></svg>