<svg viewBox="0 0 1920 200" fill="none" xmlns="http://www.w3.org/2000/svg">
<g>
<rect width="1920" height="200" fill="white"/>
<rect x="1" y="189" width="1919" height="11" fill="#D67B42"/>
<path d="M161.259 176.673H147.202C147.202 176.673 149.722 138.935 168.836 125.128C169.07 124.96 169.389 125.163 169.327 125.444C168.474 129.345 160.858 153.412 161.259 176.673V176.673Z" fill="#7CB342"/>
<path d="M131.773 176.673H145.83C145.83 176.673 147.301 121.966 128.211 98.1187C128.003 97.8593 127.624 98.057 127.669 98.4036C128.463 104.622 132.179 136.037 131.773 176.673Z" fill="#8BC34A"/>
<path d="M121.479 176.673H135.536C135.536 176.673 133.773 141.763 114.659 127.957C114.426 127.788 114.107 127.991 114.168 128.272C115.021 132.173 121.881 153.412 121.479 176.673Z" fill="#7CB342"/>
<path d="M151.571 176.673H137.515C137.515 176.673 136.043 130.185 155.136 109.924C155.347 109.7 155.72 109.877 155.674 110.181C154.876 115.495 151.166 142.173 151.571 176.673Z" fill="#9CCC65"/>
<path d="M177 191.234V166.059C170.541 166.059 170.541 171.393 164.081 171.393C157.622 171.393 157.622 166.059 151.163 166.059C144.704 166.059 144.704 171.393 138.246 171.393C131.788 171.393 131.788 166.059 125.329 166.059C118.871 166.059 118.871 171.393 112.412 171.393C105.954 171.393 105.954 166.059 99.4958 166.059C93.0384 166.059 93.0384 171.393 86.5808 171.393C80.1226 171.393 80.1226 166.059 73.6646 166.059C67.2064 166.059 67.2064 171.393 60.7479 171.393C54.2896 171.393 54.2896 166.059 47.8314 166.059C41.3735 166.059 41.3735 171.393 34.9156 171.393C28.4579 171.393 28.4579 166.059 22 166.059V191.234H177Z" fill="#9CCC65"/>
<path d="M77.2248 171.393C79.3152 171.393 80.7274 170.833 81.9026 170.077C79.4475 168.497 78.0322 166.058 73.6646 166.058C71.574 166.058 70.1617 166.619 68.9865 167.375C71.4417 168.955 72.8569 171.393 77.2248 171.393Z" fill="#8BC34A"/>
<path d="M103.056 171.393C105.146 171.393 106.559 170.833 107.734 170.077C105.279 168.497 103.863 166.058 99.4958 166.058C97.4055 166.058 95.9932 166.619 94.818 167.375C97.2732 168.955 98.6885 171.393 103.056 171.393Z" fill="#8BC34A"/>
<path d="M128.89 171.393C130.98 171.393 132.392 170.833 133.568 170.077C131.112 168.497 129.697 166.058 125.328 166.058C123.238 166.058 121.826 166.618 120.651 167.375C123.106 168.954 124.522 171.393 128.89 171.393Z" fill="#8BC34A"/>
<path d="M154.725 171.393C156.816 171.393 158.228 170.833 159.404 170.077C156.947 168.498 155.532 166.058 151.163 166.058C149.073 166.058 147.661 166.618 146.485 167.374C148.941 168.954 150.357 171.393 154.725 171.393V171.393Z" fill="#8BC34A"/>
<path d="M51.3916 171.393C53.4823 171.393 54.8945 170.833 56.0697 170.077C53.6142 168.497 52.199 166.058 47.8314 166.058C45.741 166.058 44.3288 166.619 43.1536 167.375C45.6087 168.955 47.024 171.393 51.3916 171.393Z" fill="#8BC34A"/>
<path d="M167.644 170.686V191.234H177V166.058C172.014 166.059 170.875 169.236 167.644 170.686Z" fill="#8BC34A"/>
<path d="M25.5592 171.393C27.6499 171.393 29.0622 170.833 30.2374 170.077C27.7825 168.497 26.3672 166.058 22 166.058V170.687C22.9536 171.115 24.088 171.393 25.5592 171.393Z" fill="#8BC34A"/>
<path d="M83.7615 191.234H69.7046C69.7046 191.234 72.2249 150.76 91.3389 136.94C91.572 136.771 91.8911 136.974 91.8296 137.256C90.9768 141.161 83.3603 167.95 83.7615 191.234Z" fill="#7CB342"/>
<path d="M54.2754 191.234H68.3323C68.3323 191.234 69.8039 133.775 50.7135 109.904C50.5058 109.644 50.1265 109.842 50.171 110.189C50.9653 116.414 54.6814 150.557 54.2754 191.234Z" fill="#8BC34A"/>
<path d="M43.9815 191.234H58.0384C58.0384 191.234 56.2746 153.591 37.1609 139.771C36.9278 139.602 36.6087 139.806 36.6702 140.087C37.523 143.992 44.3826 167.95 43.9815 191.234V191.234Z" fill="#7CB342"/>
<path d="M74.0739 191.234H60.0171C60.0171 191.234 58.5455 142.002 77.6383 121.72C77.849 121.496 78.2223 121.674 78.1766 121.978C77.378 127.297 73.6686 156.699 74.0739 191.234Z" fill="#9CCC65"/>
<path d="M172.319 197.902H26.6806C24.0955 197.902 22 195.807 22 193.222V188.536H177V193.222C177 195.807 174.904 197.902 172.319 197.902Z" fill="#D67B42"/>
<path d="M167.644 188.537V193.22C167.644 195.806 165.55 197.903 162.966 197.903H172.322C174.905 197.903 177 195.806 177 193.22V188.537H167.644Z" fill="#BE652B"/>
<path d="M371.224 146.101H381.421V194.537H371.224V146.101Z" fill="#BE652B"/>
<path d="M401.452 121.691C401.452 162.367 390.201 166.303 376.323 166.303C362.445 166.303 351.194 162.367 351.194 121.691C351.194 81.0144 362.444 19 376.323 19C390.201 19 401.452 81.0141 401.452 121.691Z" fill="#7CB342"/>
<path d="M376.323 19C374.446 19 372.618 20.1351 370.86 22.1958C382.111 35.3784 390.526 86.5126 390.526 121.69C390.526 156.868 382.111 164.565 370.86 166.004C372.618 166.229 374.446 166.302 376.323 166.302C390.201 166.302 401.451 162.367 401.451 121.69C401.451 81.0137 390.201 19 376.323 19V19Z" fill="#689F38"/>
<path d="M401.167 109.831C400.042 110.611 398.793 111.306 396.575 111.306C391.509 111.306 391.509 107.694 386.447 107.694C381.381 107.694 381.381 111.306 376.319 111.306C371.257 111.306 371.257 107.694 366.191 107.694C361.129 107.694 361.129 111.306 356.067 111.306C353.849 111.306 352.604 110.614 351.478 109.835C353.313 70.0006 363.736 19 376.323 19C388.909 19 399.332 69.9968 401.167 109.831V109.831Z" fill="#8BC34A"/>
<path d="M370.862 22.199C380.781 33.8261 388.494 74.9456 390.18 108.623C392.064 109.693 393.188 111.306 396.575 111.306C398.793 111.306 400.042 110.611 401.167 109.832C399.332 69.9967 388.909 19 376.323 19C374.447 19 372.621 20.1401 370.862 22.199V22.199Z" fill="#7CB342"/>
<path d="M396.324 66.3513C395.945 66.4132 395.526 66.4496 395.06 66.4496C390.373 66.4496 390.373 62.8405 385.689 62.8405C381.002 62.8405 381.002 66.4496 376.319 66.4496C371.635 66.4496 371.635 62.8405 366.952 62.8405C362.265 62.8405 362.265 66.4496 357.581 66.4496C357.119 66.4496 356.704 66.4132 356.325 66.3513C360.914 40.4252 368.165 19 376.323 19C384.48 19 391.731 40.4252 396.324 66.3513Z" fill="#9CCC65"/>
<path d="M376.323 19C374.46 19 372.645 20.1199 370.898 22.1523C370.886 22.1675 370.874 22.1852 370.863 22.199C376.407 28.6983 381.262 44.4149 384.761 62.8946C385.05 62.8607 385.357 62.8409 385.69 62.8409C390.373 62.8409 390.373 66.4499 395.06 66.4499C395.527 66.4499 395.945 66.4135 396.324 66.3517C391.731 40.4252 384.48 19 376.323 19V19Z" fill="#8BC34A"/>
<path d="M433.401 146.101H443.598V194.537H433.401V146.101Z" fill="#BE652B"/>
<path d="M463.629 121.691C463.629 162.367 452.378 166.303 438.5 166.303C424.622 166.303 413.371 162.367 413.371 121.691C413.371 81.0141 424.622 19 438.5 19C452.378 19 463.629 81.0141 463.629 121.691Z" fill="#7CB342"/>
<path d="M438.5 19C436.624 19 434.796 20.1351 433.037 22.1958C444.288 35.3784 452.703 86.5126 452.703 121.69C452.703 156.868 444.288 164.565 433.037 166.004C434.796 166.229 436.624 166.302 438.5 166.302C452.378 166.302 463.629 162.367 463.629 121.69C463.629 81.0137 452.378 19 438.5 19Z" fill="#689F38"/>
<path d="M463.345 109.831C462.219 110.611 460.97 111.306 458.752 111.306C453.686 111.306 453.686 107.694 448.624 107.694C443.558 107.694 443.558 111.306 438.496 111.306C433.434 111.306 433.434 107.694 428.369 107.694C423.307 107.694 423.307 111.306 418.244 111.306C416.026 111.306 414.781 110.614 413.656 109.835C415.491 70.0006 425.914 19 438.5 19C451.086 19 461.509 69.9968 463.345 109.831V109.831Z" fill="#8BC34A"/>
<path d="M433.04 22.199C442.959 33.8261 450.671 74.9456 452.357 108.623C454.242 109.693 455.366 111.306 458.752 111.306C460.97 111.306 462.219 110.611 463.345 109.832C461.509 69.9967 451.086 19 438.5 19C436.625 19 434.798 20.1401 433.04 22.199Z" fill="#7CB342"/>
<path d="M458.501 66.3513C458.123 66.4132 457.704 66.4496 457.237 66.4496C452.55 66.4496 452.55 62.8405 447.867 62.8405C443.18 62.8405 443.18 66.4496 438.496 66.4496C433.812 66.4496 433.813 62.8405 429.129 62.8405C424.442 62.8405 424.442 66.4496 419.759 66.4496C419.296 66.4496 418.881 66.4132 418.502 66.3513C423.091 40.4252 430.342 19 438.5 19C446.658 19 453.909 40.4252 458.501 66.3513Z" fill="#9CCC65"/>
<path d="M438.5 19C436.637 19 434.822 20.1199 433.075 22.1523C433.063 22.1675 433.052 22.1852 433.04 22.199C438.585 28.6983 443.439 44.4149 446.938 62.8946C447.227 62.8607 447.534 62.8409 447.867 62.8409C452.551 62.8409 452.551 66.4499 457.238 66.4499C457.704 66.4499 458.123 66.4135 458.502 66.3517C453.909 40.4252 446.658 19 438.5 19Z" fill="#8BC34A"/>
<path d="M495.579 146.101H505.776V194.537H495.579V146.101Z" fill="#BE652B"/>
<path d="M525.806 121.691C525.806 162.367 514.555 166.303 500.677 166.303C486.799 166.303 475.548 162.367 475.548 121.691C475.548 81.0144 486.799 19 500.677 19C514.556 19 525.806 81.0141 525.806 121.691V121.691Z" fill="#7CB342"/>
<path d="M500.677 19C498.801 19 496.973 20.1351 495.215 22.1958C506.466 35.3784 514.881 86.5126 514.881 121.69C514.881 156.868 506.466 164.565 495.215 166.004C496.973 166.229 498.801 166.302 500.677 166.302C514.556 166.302 525.806 162.367 525.806 121.69C525.806 81.0137 514.556 19 500.677 19Z" fill="#689F38"/>
<path d="M525.522 109.831C524.397 110.611 523.148 111.306 520.93 111.306C515.864 111.306 515.864 107.694 510.802 107.694C505.736 107.694 505.736 111.306 500.674 111.306C495.612 111.306 495.612 107.694 490.546 107.694C485.484 107.694 485.484 111.306 480.422 111.306C478.204 111.306 476.958 110.614 475.833 109.835C477.668 70.0006 488.091 19 500.677 19C513.264 19 523.687 69.9968 525.522 109.831V109.831Z" fill="#8BC34A"/>
<path d="M495.217 22.199C505.136 33.8261 512.849 74.9456 514.535 108.623C516.419 109.693 517.543 111.306 520.93 111.306C523.148 111.306 524.397 110.611 525.522 109.832C523.687 69.9967 513.264 19 500.677 19C498.802 19 496.975 20.1401 495.217 22.199V22.199Z" fill="#7CB342"/>
<path d="M520.678 66.3513C520.3 66.4132 519.881 66.4496 519.414 66.4496C514.728 66.4496 514.728 62.8405 510.044 62.8405C505.357 62.8405 505.357 66.4496 500.673 66.4496C495.989 66.4496 495.99 62.8405 491.306 62.8405C486.62 62.8405 486.62 66.4496 481.936 66.4496C481.473 66.4496 481.058 66.4132 480.679 66.3513C485.269 40.4252 492.52 19 500.677 19C508.835 19 516.086 40.4252 520.678 66.3513V66.3513Z" fill="#9CCC65"/>
<path d="M500.677 19C498.815 19 497 20.1199 495.253 22.1523C495.241 22.1675 495.229 22.1852 495.217 22.199C500.762 28.6983 505.617 44.4149 509.115 62.8946C509.405 62.8607 509.711 62.8409 510.045 62.8409C514.728 62.8409 514.728 66.4499 519.415 66.4499C519.881 66.4499 520.3 66.4135 520.679 66.3517C516.086 40.4252 508.835 19 500.677 19V19Z" fill="#8BC34A"/>
<path d="M523.537 200H353.463C350.446 200 348 197.554 348 194.537C348 191.52 350.446 189.074 353.463 189.074H523.537C526.554 189.074 529 191.52 529 194.537C529 197.554 526.554 200 523.537 200V200Z" fill="#D67B42"/>
<path d="M523.537 189.075H512.612C515.629 189.075 518.075 191.52 518.075 194.537C518.075 197.554 515.629 200 512.612 200H523.537C526.554 200 529 197.555 529 194.537C529 191.52 526.554 189.075 523.537 189.075Z" fill="#BE652B"/>
<path d="M763.036 187.884C754.345 187.884 745.655 187.884 736.964 187.884C739.505 168.949 733.652 160.922 736.964 147.46H763.036C766.348 160.922 760.495 168.949 763.036 187.884Z" fill="#BE652B"/>
<path d="M763.036 147.46H757.483C760.794 160.923 754.942 168.949 757.483 187.884H763.036C760.495 168.949 766.348 160.922 763.036 147.46V147.46Z" fill="#A75224"/>
<path d="M779.803 141.809C779.803 150.36 766.46 149.964 750 149.964C733.541 149.964 720.197 150.36 720.197 141.809C720.197 133.259 733.541 119 750 119C766.46 119 779.803 133.259 779.803 141.809Z" fill="#D67B42"/>
<path d="M779.803 141.81C779.803 145.827 776.858 147.869 772.026 148.905C770.801 149.168 769.455 149.367 768.005 149.515C765.588 149.764 762.882 149.877 759.967 149.928C758.758 149.949 757.515 149.96 756.239 149.964C754.228 149.971 752.14 149.964 750 149.964C747.847 149.964 745.747 149.971 743.725 149.964C742.451 149.96 741.208 149.949 740 149.928C737.167 149.879 734.531 149.77 732.166 149.532C730.716 149.389 729.368 149.196 728.141 148.941C723.21 147.915 720.197 145.872 720.197 141.81C720.197 133.258 733.541 119 750 119C766.459 119 779.803 133.258 779.803 141.81V141.81Z" fill="#D67B42"/>
<path d="M750 119C749.063 119 748.138 119.048 747.223 119.137C762.381 120.606 774.249 133.745 774.249 141.809C774.249 149.284 764.052 149.922 750.491 149.964C766.724 149.971 779.803 150.274 779.803 141.809C779.803 133.259 766.46 119 750 119V119Z" fill="#BE652B"/>
<path d="M732.166 149.532C730.716 149.389 729.368 149.196 728.141 148.941C727.843 148.388 727.586 147.779 727.368 147.116C726.628 144.861 726.619 142.746 726.619 142.658C726.619 141.914 727.223 141.31 727.967 141.31C728.711 141.31 729.314 141.912 729.314 142.656C729.316 142.742 729.379 147.737 732.166 149.532V149.532Z" fill="#A75224"/>
<path d="M743.725 149.964C742.451 149.96 741.208 149.949 740 149.928C739.557 149.229 739.186 148.426 738.89 147.522C738.15 145.265 738.141 143.152 738.141 143.064C738.141 142.318 738.744 141.716 739.488 141.716C740.232 141.716 740.836 142.318 740.836 143.062C740.836 143.146 740.901 148.188 743.725 149.964V149.964Z" fill="#A75224"/>
<path d="M761.827 143.064C761.827 143.152 761.818 145.265 761.078 147.522C760.781 148.426 760.411 149.229 759.967 149.928C758.758 149.949 757.515 149.96 756.239 149.964C759.076 148.188 759.132 143.119 759.132 143.06C759.134 142.318 759.737 141.716 760.479 141.716H760.481C761.225 141.718 761.827 142.32 761.827 143.064Z" fill="#A75224"/>
<path d="M773.526 142.658C773.526 142.746 773.517 144.861 772.779 147.116C772.567 147.764 772.315 148.361 772.026 148.905C770.801 149.168 769.455 149.367 768.005 149.515C770.775 147.703 770.831 142.713 770.831 142.656C770.835 141.912 771.437 141.312 772.179 141.312H772.182C772.924 141.312 773.526 141.914 773.526 142.658Z" fill="#A75224"/>
<path d="M796 194.457V178.995C792.166 178.995 792.166 182.159 788.332 182.159C784.498 182.159 784.498 178.995 780.664 178.995C776.831 178.995 776.831 182.159 772.998 182.159C769.164 182.159 769.164 178.995 765.331 178.995C761.497 178.995 761.497 182.159 757.664 182.159C753.831 182.159 753.831 178.995 749.997 178.995C746.165 178.995 746.165 182.159 742.332 182.159C738.499 182.159 738.499 178.995 734.665 178.995C730.832 178.995 730.832 182.159 726.999 182.159C723.165 182.159 723.165 178.995 719.332 178.995C715.499 178.995 715.499 182.159 711.666 182.159C707.833 182.159 707.833 178.995 704 178.995V194.457H796Z" fill="#9CCC65"/>
<path d="M736.779 182.16C738.019 182.16 738.858 181.827 739.555 181.379C738.098 180.442 737.258 178.995 734.666 178.995C733.425 178.995 732.586 179.328 731.889 179.776C733.346 180.713 734.186 182.16 736.779 182.16Z" fill="#8BC34A"/>
<path d="M752.111 182.16C753.351 182.16 754.19 181.827 754.887 181.379C753.43 180.442 752.59 178.995 749.997 178.995C748.757 178.995 747.918 179.328 747.221 179.776C748.678 180.713 749.518 182.16 752.111 182.16V182.16Z" fill="#8BC34A"/>
<path d="M767.444 182.16C768.685 182.16 769.523 181.827 770.221 181.379C768.763 180.442 767.923 178.995 765.33 178.995C764.09 178.995 763.251 179.328 762.554 179.776C764.011 180.713 764.852 182.16 767.444 182.16Z" fill="#8BC34A"/>
<path d="M782.779 182.16C784.02 182.16 784.858 181.828 785.556 181.379C784.098 180.442 783.258 178.995 780.665 178.995C779.424 178.995 778.586 179.328 777.888 179.776C779.346 180.713 780.186 182.16 782.779 182.16V182.16Z" fill="#8BC34A"/>
<path d="M721.445 182.16C722.686 182.16 723.524 181.827 724.222 181.379C722.765 180.442 721.925 178.995 719.332 178.995C718.091 178.995 717.253 179.328 716.556 179.776C718.013 180.713 718.853 182.16 721.445 182.16Z" fill="#8BC34A"/>
<path d="M790.447 181.74V194.457H796V178.995C793.04 178.995 792.364 180.88 790.447 181.74Z" fill="#8BC34A"/>
<path d="M706.113 182.16C707.354 182.16 708.192 181.827 708.889 181.379C707.432 180.442 706.592 178.995 704 178.995V181.74C704.566 181.994 705.239 182.16 706.113 182.16Z" fill="#8BC34A"/>
<path d="M793.223 197.883H706.777C705.243 197.883 704 196.639 704 195.106V192.328H796V195.106C796 196.639 794.757 197.883 793.223 197.883Z" fill="#D67B42"/>
<path d="M790.447 192.328V195.105C790.447 196.639 789.204 197.883 787.67 197.883H793.223C794.757 197.883 796 196.639 796 195.105V192.328H790.447Z" fill="#BE652B"/>
<path d="M1422.31 190H1340.69C1340.1 190 1339.62 189.521 1339.62 188.93V81.4765C1339.62 65.7493 1352.37 53 1368.1 53H1394.9C1410.63 53 1423.38 65.7493 1423.38 81.4765V188.93C1423.38 189.521 1422.9 190 1422.31 190Z" fill="#D67B42"/>
<path d="M1394.91 53H1386.64C1402.37 53 1415.11 65.753 1415.11 81.4845V190H1422.31C1422.9 190 1423.38 189.521 1423.38 188.93V81.4845C1423.38 65.753 1410.63 53 1394.91 53V53Z" fill="#BE652B"/>
<path d="M1423.38 81.4834V147.059C1418.14 147.059 1418.14 151.359 1412.91 151.359C1407.67 151.359 1407.67 147.059 1402.44 147.059C1397.2 147.059 1397.2 151.359 1391.97 151.359C1386.73 151.359 1386.73 147.059 1381.5 147.059C1376.26 147.059 1376.26 151.359 1371.03 151.359C1365.79 151.359 1365.79 147.059 1360.56 147.059C1355.33 147.059 1355.33 151.359 1350.09 151.359C1344.86 151.359 1344.85 147.061 1339.63 147.059V81.4834C1339.62 65.7517 1352.37 53 1368.09 53H1394.91C1410.63 53 1423.38 65.7517 1423.38 81.4834V81.4834Z" fill="#FDF3E9"/>
<path d="M1352.29 147.059C1348.96 147.059 1347.75 148.802 1345.96 150.069C1346.98 150.791 1348.19 151.359 1350.09 151.359C1353.42 151.359 1354.64 149.616 1356.43 148.349C1355.4 147.627 1354.2 147.059 1352.29 147.059V147.059Z" fill="#F2E2D5"/>
<path d="M1373.23 147.059C1369.9 147.059 1368.69 148.802 1366.9 150.068C1367.92 150.791 1369.13 151.359 1371.03 151.359C1374.36 151.359 1375.57 149.616 1377.36 148.349C1376.34 147.627 1375.13 147.059 1373.23 147.059Z" fill="#F2E2D5"/>
<path d="M1394.17 147.059C1390.84 147.059 1389.63 148.802 1387.83 150.068C1388.86 150.791 1390.07 151.359 1391.97 151.359C1395.3 151.359 1396.51 149.616 1398.3 148.349C1397.28 147.627 1396.07 147.059 1394.17 147.059Z" fill="#F2E2D5"/>
<path d="M1394.91 53H1386.64C1402.37 53 1415.11 65.7517 1415.11 81.4834V151.046C1418.28 150.058 1419 147.059 1423.38 147.059V81.4832C1423.38 65.7517 1410.63 53 1394.91 53V53Z" fill="#F2E2D5"/>
<path d="M1362.56 98.5846C1365.89 98.5846 1368.58 95.8925 1368.58 92.5716C1368.58 89.2507 1365.89 86.5586 1362.56 86.5586C1359.24 86.5586 1356.54 89.2507 1356.54 92.5716C1356.54 95.8925 1359.24 98.5846 1362.56 98.5846Z" fill="#455A64"/>
<path d="M1400.44 98.5846C1403.76 98.5846 1406.46 95.8925 1406.46 92.5716C1406.46 89.2507 1403.76 86.5586 1400.44 86.5586C1397.11 86.5586 1394.42 89.2507 1394.42 92.5716C1394.42 95.8925 1397.11 98.5846 1400.44 98.5846Z" fill="#455A64"/>
<path d="M1406.29 115.736C1406.29 115.736 1390.81 123.878 1381.5 123.878C1372.19 123.878 1356.71 115.736 1356.71 115.736C1353.21 115.736 1350.37 115.371 1350.37 111.87C1350.37 108.368 1353.21 105.53 1356.71 105.53H1406.29C1409.79 105.53 1412.63 108.368 1412.63 111.87C1412.63 115.371 1409.79 115.736 1406.29 115.736V115.736Z" fill="#FFA000"/>
<path d="M1400.87 107.621C1396.78 110.116 1386.5 117.323 1382.4 128.834C1382.1 129.683 1380.9 129.683 1380.6 128.834C1376.5 117.322 1366.22 110.116 1362.13 107.621C1361.09 106.987 1360.61 105.732 1360.94 104.56C1366.26 85.6381 1381.5 85.5412 1381.5 85.5412C1381.5 85.5412 1396.74 85.6384 1402.06 104.56C1402.39 105.733 1401.91 106.987 1400.87 107.621V107.621Z" fill="#FFD54F"/>
<path d="M1402.06 104.56C1396.74 85.6381 1381.5 85.5412 1381.5 85.5412C1381.5 85.5412 1380.66 85.5468 1379.3 85.8C1384.17 87.7338 1390.67 92.3591 1393.79 103.429C1394.12 104.602 1393.64 105.856 1392.6 106.49C1389.27 108.517 1381.87 113.654 1377.01 121.682C1378.43 123.843 1379.67 126.227 1380.6 128.834C1380.9 129.683 1382.1 129.683 1382.4 128.834C1386.5 117.323 1396.78 110.116 1400.87 107.621C1401.91 106.987 1402.39 105.732 1402.06 104.56V104.56Z" fill="#FFC328"/>
<path d="M1791.4 76.1503V46.3214L1829.53 60.5351C1830.18 60.777 1830.18 61.6947 1829.53 61.9366L1791.4 76.1503Z" fill="#F78E36"/>
<path d="M1791.4 44C1789.89 44 1788.67 45.2239 1788.67 46.7331V110.124C1788.67 111.633 1789.89 112.857 1791.4 112.857C1792.9 112.857 1794.12 111.633 1794.12 110.124V46.7331C1794.12 45.2239 1792.9 44 1791.4 44V44Z" fill="#455A64"/>
<path d="M1857.06 190.942H1832.32V175.566C1832.32 168.735 1837.86 163.198 1844.69 163.198C1851.52 163.198 1857.06 168.735 1857.06 175.566V190.942Z" fill="#9CCC65"/>
<path d="M1844.69 163.197C1842.73 163.197 1840.88 163.655 1839.23 164.465C1843.33 166.482 1846.14 170.694 1846.14 175.565V190.941H1857.06V175.565C1857.06 168.735 1851.52 163.197 1844.69 163.197Z" fill="#8BC34A"/>
<path d="M1881.79 190.942H1857.06V165.59C1857.06 158.759 1862.59 153.222 1869.42 153.222C1876.25 153.222 1881.79 158.759 1881.79 165.59V190.942Z" fill="#9CCC65"/>
<path d="M1869.42 153.222C1867.47 153.222 1865.61 153.679 1863.97 154.49C1868.06 156.506 1870.88 160.718 1870.88 165.59V190.941H1881.79V165.59C1881.79 158.759 1876.25 153.222 1869.42 153.222Z" fill="#8BC34A"/>
<path d="M1750.47 190.942H1725.74V175.566C1725.74 168.735 1731.27 163.198 1738.1 163.198C1744.93 163.198 1750.47 168.735 1750.47 175.566V190.942H1750.47Z" fill="#9CCC65"/>
<path d="M1738.1 163.197C1736.15 163.197 1734.29 163.655 1732.65 164.465C1736.74 166.482 1739.56 170.694 1739.56 175.565V190.941H1750.47V175.565C1750.47 168.735 1744.93 163.197 1738.1 163.197Z" fill="#8BC34A"/>
<path d="M1725.74 190.942H1701V165.59C1701 158.759 1706.54 153.222 1713.37 153.222C1720.2 153.222 1725.74 158.759 1725.74 165.59V190.942Z" fill="#9CCC65"/>
<path d="M1713.37 153.222C1711.41 153.222 1709.56 153.679 1707.91 154.49C1712 156.506 1714.82 160.718 1714.82 165.59V190.941H1725.74V165.59C1725.74 158.759 1720.2 153.222 1713.37 153.222Z" fill="#8BC34A"/>
<path d="M1734.9 190.942L1791.4 99.2359L1847.89 190.942H1734.9Z" fill="#FFD54F"/>
<path d="M1791.4 99.2359L1785.94 107.956L1836.98 190.942H1847.89L1791.4 99.2359Z" fill="#FFC328"/>
<path d="M1821.52 190.942H1761.28L1791.4 134.49L1821.52 190.942Z" fill="#546E7A"/>
<path d="M1791.4 134.49V190.942H1821.52L1791.4 134.49Z" fill="#FFC328"/>
<path d="M1876.34 200.428H1706.46C1703.44 200.428 1701 197.985 1701 194.971V189.515H1881.79V194.971C1881.79 197.985 1879.35 200.428 1876.34 200.428Z" fill="#D67B42"/>
<path d="M1870.88 189.515V194.971C1870.88 197.985 1868.44 200.428 1865.42 200.428H1876.34C1879.35 200.428 1881.79 197.985 1881.79 194.971V189.515H1870.88Z" fill="#BE652B"/>
</g>
<defs>
<clipPath id="clip0">
<rect width="1920" height="200" fill="white"/>
</clipPath>
</defs>
</svg>
